<?xml version="1.0" encoding="utf-8"?>
<svg version="1.1" id="Layer_1" xmlns="http://www.w3.org/2000/svg" x="0px" y="0px"
	 viewBox="0 0 200 200" style="enable-background:new 0 0 200 200;" xml:space="preserve">
<g>
	<g>
		<polygon points="37.7,45.2 161.6,45.4 161.6,139.4 179.5,139.4 179.5,27.1 19.8,27.1 19.8,171.4 147.1,171.4 147.1,153.6
			37.7,153.6 		"/>
		<rect x="157.5" y="149.8" width="27.2" height="27.2"/>
	</g>
	<path d="M60.4,75.8v9.4h-4.9V63.4h4.9v8.2h8v-8.2h4.9v21.8h-4.9v-9.4H60.4z"/>
	<path d="M77,74.4c0.3-3.6,2.6-5.4,7-5.4c2.4,0,4.2,0.6,5.5,1.6c1.1,1,1.6,2.3,1.6,4.6v7.3c0,1.7,0.1,1.9,0.6,2.7h-4.7
		c-0.2-0.6-0.2-0.7-0.4-1.2c-1.5,1.3-2.7,1.7-4.5,1.7c-3.5,0-5.8-2-5.8-4.9c0-3,1.9-4.5,6.3-5.2l2.5-0.4c1-0.2,1.4-0.4,1.4-1.1
		c0-0.9-0.9-1.4-2.4-1.4c-1.7,0-2.6,0.6-2.8,1.9H77z M86.5,77.7c-0.5,0.2-0.9,0.3-1.7,0.5l-1.7,0.4c-1.7,0.4-2.4,0.9-2.4,1.9
		c0,1,0.9,1.7,2.4,1.7c1.5,0,2.6-0.7,3.4-2V77.7z"/>
	<path d="M98.8,69.4V71c1.7-1.6,2.7-2,4.3-2c3.4,0,5.5,2.3,5.5,6v10.2H104v-8.6c0-1.6-0.1-2.2-0.5-2.8c-0.4-0.6-1.1-0.9-1.9-0.9
		c-0.8,0-1.5,0.3-2,0.8C99.1,74.4,99,75,99,76.4v8.9h-4.6V69.4H98.8z"/>
	<path d="M126.9,85.2h-4.4v-1.7c-1.2,1.5-2.4,2.1-4.4,2.1c-4.2,0-6.9-3.3-6.9-8.3c0-5,2.8-8.4,7.1-8.4c1.7,0,2.9,0.5,4,1.6v-7.2h4.6
		V85.2z M115.8,77.3c0,2.8,1.3,4.6,3.3,4.6c2,0,3.3-1.8,3.3-4.5c0-2.8-1.3-4.6-3.3-4.6C117.1,72.8,115.8,74.5,115.8,77.3z"/>
	<path d="M138.8,74.2c-0.2-1.2-1.1-1.8-2.7-1.8c-1.3,0-2.2,0.5-2.2,1.3c0,0.6,0.5,0.9,1.9,1.2l2.9,0.6c1.9,0.4,2.9,0.8,3.6,1.5
		c0.8,0.7,1.2,1.9,1.2,3.2c0,3.3-2.7,5.4-7.1,5.4s-7.1-2.1-7.4-5.6h4.4c0.3,1.5,1.2,2.2,3.1,2.2c1.5,0,2.4-0.6,2.4-1.5
		c0-0.8-0.5-1.1-1.8-1.4l-2.9-0.7c-3.5-0.8-4.8-2-4.8-4.5c0-3.2,2.5-5.1,6.7-5.1c4.1,0,6.5,1.8,6.9,5.2H138.8z"/>
	<g>
		<path d="M72.6,100.2c0,4.8-3.5,8.2-8.4,8.2c-4.9,0-8.4-3.4-8.4-8.3c0-4.9,3.5-8.3,8.4-8.3C69.2,91.8,72.6,95.2,72.6,100.2z
			 M60.5,100.1c0,3,1.3,4.6,3.7,4.6c2.3,0,3.7-1.7,3.7-4.5c0-3-1.3-4.7-3.7-4.7C61.8,95.5,60.5,97.2,60.5,100.1z"/>
		<path d="M79.6,92.2v1.5c1.7-1.6,2.7-2,4.3-2c3.4,0,5.5,2.3,5.5,6V108h-4.6v-8.6c0-1.6-0.1-2.2-0.5-2.8c-0.4-0.6-1.1-0.9-1.9-0.9
			c-0.8,0-1.5,0.3-2,0.8c-0.5,0.6-0.7,1.2-0.7,2.6v8.9h-4.6V92.2H79.6z"/>
	</g>
	<g>
		<path d="M65.5,123.1h-2.8v6.1c0,2.5,0.1,2.7,1.2,2.7h1.7v3.5h-2.8c-2,0-3-0.3-3.7-1c-0.7-0.8-0.9-1.6-0.9-4.1v-7.2h-2.2v-3.3h2.2
			v-5h4.6v5h2.8V123.1z"/>
		<path d="M67.7,124.6c0.3-3.6,2.6-5.4,7-5.4c2.4,0,4.2,0.6,5.5,1.6c1.1,1,1.6,2.3,1.6,4.6v7.3c0,1.7,0.1,1.9,0.6,2.7h-4.7
			c-0.2-0.6-0.2-0.7-0.4-1.2c-1.5,1.3-2.7,1.7-4.5,1.7c-3.5,0-5.8-2-5.8-4.9s1.9-4.5,6.3-5.2l2.5-0.4c1-0.2,1.4-0.4,1.4-1.1
			c0-0.9-0.9-1.4-2.4-1.4c-1.7,0-2.6,0.6-2.8,1.9H67.7z M77.2,127.9c-0.5,0.2-0.9,0.3-1.7,0.5l-1.7,0.4c-1.7,0.4-2.4,0.9-2.4,1.9
			c0,1,0.9,1.7,2.4,1.7c1.5,0,2.6-0.7,3.4-2V127.9z"/>
		<path d="M85,113.6h4.6v7.1c1.5-1.1,2.7-1.5,4.4-1.5c4,0,6.7,3.3,6.7,8.1c0,5-2.9,8.5-7,8.5c-2,0-3.1-0.6-4.3-2.2v1.8H85V113.6z
			 M89.5,127.5c0,2.7,1.3,4.6,3.4,4.6s3.3-1.8,3.3-4.5c0-2.8-1.3-4.6-3.3-4.6C90.8,122.9,89.5,124.8,89.5,127.5z"/>
		<path d="M107.9,135.4h-4.6v-21.8h4.6V135.4z"/>
		<path d="M115.1,128.9c0.3,2.2,1.6,3.3,3.6,3.3c1.2,0,2.1-0.4,2.7-1.4h4.7c-0.9,3.1-3.8,5-7.6,5c-4.9,0-8.1-3.3-8.1-8.3
			c0-4.9,3.3-8.3,8.1-8.3c3.3,0,5.9,1.7,7,4.6c0.6,1.4,0.8,2.8,0.8,5H115.1z M121.5,125.6c-0.2-1.9-1.3-2.9-3.1-2.9
			c-1.8,0-3,1-3.3,2.9H121.5z"/>
	</g>
</g>
</svg>
